{"accessors" : [{"bufferView" : 0, "byteOffset" : 0, "componentType" : 5123, "count" : 13440, "type" : "SCALAR", "max" : [12498], "min" : [0]}, {"bufferView" : 1, "byteOffset" : 0, "componentType" : 5126, "count" : 12499, "type" : "VEC3", "max" : [0.004144090227782726, 0.004901001695543528, 0.028612477704882622], "min" : [-0.004144090227782726, -0.004305930808186531, 0.02024131640791893], "name" : "POSITION"}, {"bufferView" : 1, "byteOffset" : 12, "componentType" : 5126, "count" : 12499, "type" : "VEC3", "max" : [0.9994028210639954, 0.9972811341285706, 0.9985359311103821], "min" : [-0.9994029402732849, -0.9995455145835876, -0.997101902961731], "name" : "NORMAL"}, {"bufferView" : 1, "byteOffset" : 24, "componentType" : 5126, "count" : 12499, "type" : "VEC2", "max" : [0, 1], "min" : [0, 1], "name" : "TEXCOORD_0"}, {"bufferView" : 0, "byteOffset" : 26880, "componentType" : 5123, "count" : 402, "type" : "SCALAR", "max" : [346], "min" : [0]}, {"bufferView" : 2, "byteOffset" : 0, "componentType" : 5126, "count" : 347, "type" : "VEC3", "max" : [0.002104438841342926, -0.0027400823310017586, 0.023651408031582832], "min" : [-0.002104438841342926, -0.0033879370894283056, 0.022507095709443092], "name" : "POSITION"}, {"bufferView" : 2, "byteOffset" : 12, "componentType" : 5126, "count" : 347, "type" : "VEC3", "max" : [0.9985895752906799, 0.09215805679559708, 0.8178079724311829], "min" : [-0.9985895752906799, -0.9436835050582886, -0.9208099246025085], "name" : "NORMAL"}, {"bufferView" : 2, "byteOffset" : 24, "componentType" : 5126, "count" : 347, "type" : "VEC2", "max" : [0, 1], "min" : [0, 1], "name" : "TEXCOORD_0"}, {"bufferView" : 0, "byteOffset" : 27684, "componentType" : 5123, "count" : 210, "type" : "SCALAR", "max" : [177], "min" : [0]}, {"bufferView" : 3, "byteOffset" : 0, "componentType" : 5126, "count" : 178, "type" : "VEC3", "max" : [0.0020834519527852535, -0.003070335602387786, 0.023477565497159958], "min" : [-0.0020834519527852535, -0.0033879370894283056, 0.022639082744717598], "name" : "POSITION"}, {"bufferView" : 3, "byteOffset" : 12, "componentType" : 5126, "count" : 178, "type" : "VEC3", "max" : [0.7994289398193359, -0.528881847858429, 0.4853723347187042], "min" : [-0.79942786693573, -0.9968010187149048, -0.5740744471549988], "name" : "NORMAL"}, {"bufferView" : 3, "byteOffset" : 24, "componentType" : 5126, "count" : 178, "type" : "VEC2", "max" : [0, 1], "min" : [0, 1], "name" : "TEXCOORD_0"}, {"bufferView" : 0, "byteOffset" : 28104, "componentType" : 5123, "count" : 24, "type" : "SCALAR", "max" : [22], "min" : [0]}, {"bufferView" : 4, "byteOffset" : 0, "componentType" : 5126, "count" : 23, "type" : "VEC3", "max" : [0.0020373244769871235, -0.0030659118201583624, 0.023418890312314034], "min" : [-0.0020373244769871235, -0.0031898075249046087, 0.0232419241219759], "name" : "POSITION"}, {"bufferView" : 4, "byteOffset" : 12, "componentType" : 5126, "count" : 23, "type" : "VEC3", "max" : [0.7994289398193359, -0.5546448826789856, 0.43344587087631226], "min" : [-0.79942786693573, -0.7264824509620667, 0.23084892332553864], "name" : "NORMAL"}, {"bufferView" : 4, "byteOffset" : 24, "componentType" : 5126, "count" : 23, "type" : "VEC2", "max" : [0, 1], "min" : [0, 1], "name" : "TEXCOORD_0"}, {"bufferView" : 0, "byteOffset" : 28152, "componentType" : 5123, "count" : 996, "type" : "SCALAR", "max" : [900], "min" : [0]}, {"bufferView" : 5, "byteOffset" : 0, "componentType" : 5126, "count" : 901, "type" : "VEC3", "max" : [0.014398263767361641, 0.006284201983362436, 0.027897784486413002], "min" : [-0.014398263767361641, -0.0020134609658271074, 0.0172469150274992], "name" : "POSITION"}, {"bufferView" : 5, "byteOffset" : 12, "componentType" : 5126, "count" : 901, "type" : "VEC3", "max" : [0.9980441927909851, 0.98827064037323, 0.9971222877502441], "min" : [-0.9980441927909851, -0.991544783115387, -0.9998915195465088], "name" : "NORMAL"}, {"bufferView" : 5, "byteOffset" : 24, "componentType" : 5126, "count" : 901, "type" : "VEC2", "max" : [0.998046875, 0.998046875], "min" : [0.31135445833206177, 0.019471287727355957], "name" : "TEXCOORD_0"}, {"bufferView" : 0, "byteOffset" : 30144, "componentType" : 5123, "count" : 378, "type" : "SCALAR", "max" : [356], "min" : [0]}, {"bufferView" : 6, "byteOffset" : 0, "componentType" : 5126, "count" : 357, "type" : "VEC3", "max" : [0.009427057579159737, 0.0031178253702819347, 0.01960056647658348], "min" : [-0.009427057579159737, -8.947998139774427E-06, 0.017107291147112846], "name" : "POSITION"}, {"bufferView" : 6, "byteOffset" : 12, "componentType" : 5126, "count" : 357, "type" : "VEC3", "max" : [0.32007139921188354, 0.998592734336853, 0.9354484677314758], "min" : [-0.3200717270374298, -0.9950641989707947, -0.9254540205001831], "name" : "NORMAL"}, {"bufferView" : 6, "byteOffset" : 24, "componentType" : 5126, "count" : 357, "type" : "VEC2", "max" : [0.8643758893013, 0.49307239055633545], "min" : [0.31135445833206177, 0.13216841220855713], "name" : "TEXCOORD_0"}, {"bufferView" : 0, "byteOffset" : 30900, "componentType" : 5123, "count" : 516, "type" : "SCALAR", "max" : [476], "min" : [0]}, {"bufferView" : 7, "byteOffset" : 0, "componentType" : 5126, "count" : 477, "type" : "VEC3", "max" : [0.0031473874114453793, 0.004416188690811396, 0.011967537924647331], "min" : [-0.0031473874114453793, 0.0003767157904803753, 0.0045000044628977776], "name" : "POSITION"}, {"bufferView" : 7, "byteOffset" : 12, "componentType" : 5126, "count" : 477, "type" : "VEC3", "max" : [0.9916038513183594, 0.9995977878570557, 0.32617396116256714], "min" : [-0.9916038513183594, -0.9990797638893127, -0.927376925945282], "name" : "NORMAL"}, {"bufferView" : 7, "byteOffset" : 24, "componentType" : 5126, "count" : 477, "type" : "VEC2", "max" : [0.8804086446762085, 0.998046875], "min" : [0.001953125, 0.2375546097755432], "name" : "TEXCOORD_0"}, {"bufferView" : 0, "byteOffset" : 31932, "componentType" : 5123, "count" : 624, "type" : "SCALAR", "max" : [572], "min" : [0]}, {"bufferView" : 8, "byteOffset" : 0, "componentType" : 5126, "count" : 573, "type" : "VEC3", "max" : [0.004499159753322601, 0.004624635446816683, 0.019835570827126503], "min" : [-0.004499159753322601, -7.713123341090977E-05, 0.01059100590646267], "name" : "POSITION"}, {"bufferView" : 8, "byteOffset" : 12, "componentType" : 5126, "count" : 573, "type" : "VEC3", "max" : [0.8962018489837646, 0.9947652816772461, 0.9580584764480591], "min" : [-0.8962017893791199, -0.9973562955856323, -0.936677873134613], "name" : "NORMAL"}, {"bufferView" : 8, "byteOffset" : 24, "componentType" : 5126, "count" : 573, "type" : "VEC2", "max" : [0.8804086446762085, 0.998046875], "min" : [0.14390133321285248, 0.11271727085113525], "name" : "TEXCOORD_0"}, {"bufferView" : 0, "byteOffset" : 33180, "componentType" : 5123, "count" : 684, "type" : "SCALAR", "max" : [649], "min" : [0]}, {"bufferView" : 9, "byteOffset" : 0, "componentType" : 5126, "count" : 650, "type" : "VEC3", "max" : [0.010195116512477398, 0.0046698288060724735, 0.020075920969247818], "min" : [-0.010195116512477398, 5.6171433243434876E-05, 0.0034508209209889174], "name" : "POSITION"}, {"bufferView" : 9, "byteOffset" : 12, "componentType" : 5126, "count" : 650, "type" : "VEC3", "max" : [0.980741024017334, 0.9891676902770996, 0.9989898800849915], "min" : [-0.980741024017334, -0.9950641989707947, -0.9123028516769409], "name" : "NORMAL"}, {"bufferView" : 9, "byteOffset" : 24, "componentType" : 5126, "count" : 650, "type" : "VEC2", "max" : [0.9859042763710022, 0.9394460916519165], "min" : [0.08423321694135666, 0.15194785594940186], "name" : "TEXCOORD_0"}, {"bufferView" : 0, "byteOffset" : 34548, "componentType" : 5123, "count" : 540, "type" : "SCALAR", "max" : [499], "min" : [0]}, {"bufferView" : 10, "byteOffset" : 0, "componentType" : 5126, "count" : 500, "type" : "VEC3", "max" : [0.0032428475096821785, 0.0035430591087788343, 0.003788177389651537], "min" : [-0.0032428475096821785, -0.0008036621729843318, 2.3177265120466473E-06], "name" : "POSITION"}, {"bufferView" : 10, "byteOffset" : 12, "componentType" : 5126, "count" : 500, "type" : "VEC3", "max" : [0.9990238547325134, 0.9888894557952881, 0.8872897624969482], "min" : [-0.9990238547325134, -0.9889146089553833, -1.0000044107437134], "name" : "NORMAL"}, {"bufferView" : 10, "byteOffset" : 24, "componentType" : 5126, "count" : 500, "type" : "VEC2", "max" : [0.9917373657226562, 0.6668155193328857], "min" : [0.2691633701324463, 0.29402226209640503], "name" : "TEXCOORD_0"}, {"bufferView" : 0, "byteOffset" : 35628, "componentType" : 5123, "count" : 336, "type" : "SCALAR", "max" : [316], "min" : [0]}, {"bufferView" : 11, "byteOffset" : 0, "componentType" : 5126, "count" : 317, "type" : "VEC3", "max" : [0.0032383613288402557, 0.004337930120527744, 0.014778991229832172], "min" : [-0.003116052597761154, -0.0006385503802448511, 0.011895627714693546], "name" : "POSITION"}, {"bufferView" : 11, "byteOffset" : 12, "componentType" : 5126, "count" : 317, "type" : "VEC3", "max" : [0.9572468996047974, 0.9632465839385986, 0.9749647974967957], "min" : [-0.9464359879493713, -0.970103919506073, -0.9276471138000488], "name" : "NORMAL"}, {"bufferView" : 11, "byteOffset" : 24, "componentType" : 5126, "count" : 317, "type" : "VEC2", "max" : [0.7335914373397827, 0.7182344198226929], "min" : [0.6020041704177856, 0.16806036233901978], "name" : "TEXCOORD_0"}], "asset" : {"generator" : "Aspose.3D 23.9.0", "version" : "2.0"}, "buffers" : [{"uri" : "data:application/octet-stream;base64,", "byteLength" : 617148}], "bufferViews" : [{"buffer" : 0, "byteOffset" : 0, "byteLength" : 36300, "target" : 34963}, {"buffer" : 0, "byteOffset" : 36304, "byteLength" : 430080, "byteStride" : 32, "target" : 34962}, {"buffer" : 0, "byteOffset" : 466388, "byteLength" : 12864, "byteStride" : 32, "target" : 34962}, {"buffer" : 0, "byteOffset" : 479256, "byteLength" : 6720, "byteStride" : 32, "target" : 34962}, {"buffer" : 0, "byteOffset" : 485980, "byteLength" : 768, "byteStride" : 32, "target" : 34962}, {"buffer" : 0, "byteOffset" : 486752, "byteLength" : 31872, "byteStride" : 32, "target" : 34962}, {"buffer" : 0, "byteOffset" : 518628, "byteLength" : 12096, "byteStride" : 32, "target" : 34962}, {"buffer" : 0, "byteOffset" : 530728, "byteLength" : 16512, "byteStride" : 32, "target" : 34962}, {"buffer" : 0, "byteOffset" : 547244, "byteLength" : 19968, "byteStride" : 32, "target" : 34962}, {"buffer" : 0, "byteOffset" : 567216, "byteLength" : 21888, "byteStride" : 32, "target" : 34962}, {"buffer" : 0, "byteOffset" : 589108, "byteLength" : 17280, "byteStride" : 32, "target" : 34962}, {"buffer" : 0, "byteOffset" : 606392, "byteLength" : 10752, "byteStride" : 32, "target" : 34962}], "materials" : [{"name" : "Hair", "pbrMetallicRoughness" : {"baseColorFactor" : [0.273903846740723, 0.192843705415726, 0.0491957888007164, 1], "metallicFactor" : 0.400000005960464, "roughnessFactor" : 0.415087103843689}, "emissiveFactor" : [0, 0, 0], "alphaMode" : "OPAQUE", "doubleSided" : false}, {"name" : "Eye", "pbrMetallicRoughness" : {"baseColorFactor" : [0.011735001578927, 0.011735001578927, 0.011735001578927, 1], "metallicFactor" : 0.400000005960464, "roughnessFactor" : 0.415087103843689}, "emissiveFactor" : [0, 0, 0], "alphaMode" : "OPAQUE", "doubleSided" : false}, {"name" : "Pupil", "pbrMetallicRoughness" : {"baseColorFactor" : [0.0375681594014168, 0.0375681594014168, 0.0375681594014168, 1], "metallicFactor" : 0.400000005960464, "roughnessFactor" : 0.415087103843689}, "emissiveFactor" : [0, 0, 0], "alphaMode" : "OPAQUE", "doubleSided" : false}, {"name" : "White", "pbrMetallicRoughness" : {"baseColorFactor" : [0.539074301719666, 0.539074301719666, 0.539074301719666, 1], "metallicFactor" : 0.400000005960464, "roughnessFactor" : 0.415087103843689}, "emissiveFactor" : [0, 0, 0], "alphaMode" : "OPAQUE", "doubleSided" : false}, {"name" : "Skin", "pbrMetallicRoughness" : {"baseColorFactor" : [0.483049213886261, 0.355199426412582, 0.196956023573875, 1], "metallicFactor" : 0.400000005960464, "roughnessFactor" : 0.415087103843689}, "emissiveFactor" : [0, 0, 0], "alphaMode" : "OPAQUE", "doubleSided" : false}, {"name" : "UnderShirt", "pbrMetallicRoughness" : {"baseColorFactor" : [0.15194146335125, 0.224804550409317, 0.0614060871303082, 1], "metallicFactor" : 0.400000005960464, "roughnessFactor" : 0.415087103843689}, "emissiveFactor" : [0, 0, 0], "alphaMode" : "OPAQUE", "doubleSided" : false}, {"name" : "Pants", "pbrMetallicRoughness" : {"baseColorFactor" : [0.156788036227226, 0.15652060508728, 0.101361863315105, 1], "metallicFactor" : 0.400000005960464, "roughnessFactor" : 0.415087103843689}, "emissiveFactor" : [0, 0, 0], "alphaMode" : "OPAQUE", "doubleSided" : false}, {"name" : "Shirt", "pbrMetallicRoughness" : {"baseColorFactor" : [0.079641655087471, 0.196949318051338, 0.196949318051338, 1], "metallicFactor" : 0.400000005960464, "roughnessFactor" : 0.415087103843689}, "emissiveFactor" : [0, 0, 0], "alphaMode" : "OPAQUE", "doubleSided" : false}, {"name" : "Detail", "pbrMetallicRoughness" : {"baseColorFactor" : [0.413862854242325, 0.391428917646408, 0.273101001977921, 1], "metallicFactor" : 0.400000005960464, "roughnessFactor" : 0.415087103843689}, "emissiveFactor" : [0, 0, 0], "alphaMode" : "OPAQUE", "doubleSided" : false}, {"name" : "Boots", "pbrMetallicRoughness" : {"baseColorFactor" : [0.0780698880553246, 0.0675009861588478, 0.0476089976727962, 1], "metallicFactor" : 0.400000005960464, "roughnessFactor" : 0.415087103843689}, "emissiveFactor" : [0, 0, 0], "alphaMode" : "OPAQUE", "doubleSided" : false}, {"name" : "Material.006", "pbrMetallicRoughness" : {"baseColorFactor" : [0.213405877351761, 0.0781571641564369, 0.0541184209287167, 1], "metallicFactor" : 0.400000005960464, "roughnessFactor" : 0.415087103843689}, "emissiveFactor" : [0, 0, 0], "alphaMode" : "OPAQUE", "doubleSided" : false}], "meshes" : [{"primitives" : [{"attributes" : {"POSITION" : 1, "NORMAL" : 2, "TEXCOORD_0" : 3}, "indices" : 0, "material" : 0, "mode" : 4}, {"attributes" : {"POSITION" : 5, "NORMAL" : 6, "TEXCOORD_0" : 7}, "indices" : 4, "material" : 1, "mode" : 4}, {"attributes" : {"POSITION" : 9, "NORMAL" : 10, "TEXCOORD_0" : 11}, "indices" : 8, "material" : 2, "mode" : 4}, {"attributes" : {"POSITION" : 13, "NORMAL" : 14, "TEXCOORD_0" : 15}, "indices" : 12, "material" : 3, "mode" : 4}]}, {"primitives" : [{"attributes" : {"POSITION" : 17, "NORMAL" : 18, "TEXCOORD_0" : 19}, "indices" : 16, "material" : 4, "mode" : 4}, {"attributes" : {"POSITION" : 21, "NORMAL" : 22, "TEXCOORD_0" : 23}, "indices" : 20, "material" : 5, "mode" : 4}, {"attributes" : {"POSITION" : 25, "NORMAL" : 26, "TEXCOORD_0" : 27}, "indices" : 24, "material" : 6, "mode" : 4}, {"attributes" : {"POSITION" : 29, "NORMAL" : 30, "TEXCOORD_0" : 31}, "indices" : 28, "material" : 7, "mode" : 4}, {"attributes" : {"POSITION" : 33, "NORMAL" : 34, "TEXCOORD_0" : 35}, "indices" : 32, "material" : 8, "mode" : 4}, {"attributes" : {"POSITION" : 37, "NORMAL" : 38, "TEXCOORD_0" : 39}, "indices" : 36, "material" : 9, "mode" : 4}]}, {"primitives" : [{"attributes" : {"POSITION" : 41, "NORMAL" : 42, "TEXCOORD_0" : 43}, "indices" : 40, "material" : 10, "mode" : 4}]}], "nodes" : [{"matrix" : [0.9999999678475965, -8.49278770550705E-11, -0.00055020304168029, 0, -0.0005502030416802952, -4.1452282551928604E-08, -0.9999999250061916, 0, 3.8549221865850913E-11, 0.9999999571586002, -4.1452311583256574E-08, 0, 6.40084999758983E-06, -0.0206206142902374, 3.10430659737904E-05, 1], "mesh" : 0, "name" : "NurbsPath.001"}, {"children" : [0], "matrix" : [0.99999978862261, 2.3356569749297435E-05, 0.0005504542843081747, 0, 3.1723254164712505E-08, 0.9990984978873728, -0.042450822218808, 0, -0.0005509496198771302, 0.04245081832365794, 0.999098405801607, 0, -3.58433280885778E-13, 0.00098732381593436, 2.18746548652504E-10, 1], "name" : "Head"}, {"children" : [1], "matrix" : [0.999999999999082, -5.8472703666488905E-08, -1.3537424116694727E-06, 0, -4.761384141228599E-08, 0.9969352210901101, -0.07823300709425435, 0, 1.35416782448603E-06, 0.07823299776814688, 0.9969351022452664, 0, -8.07531802928321E-14, 0.00406747404485941, -1.07872967503031E-10, 1], "name" : "Neck"}, {"children" : [2], "matrix" : [0.9999999999986151, 2.8452894044663024E-08, 1.6640007944886436E-06, 0, 4.927734612316376E-08, 0.998909111230952, -0.04669420722713288, 0, -1.6635143383266855E-06, 0.04669421279353417, 0.9989092303088275, 0, 7.3185903138543E-14, 0.00325252790935338, 1.981498715109E-10, 1], "name" : "Torso"}, {"children" : [3], "matrix" : [0.9999999999997496, 4.7466767119141645E-07, -5.247817187219566E-07, 0, -1.8785470245910328E-07, 0.8931042831335642, 0.44984995388915117, 0, 6.822140283814875E-07, -0.44984995388894, 0.8931042831334297, 0, 4.18971525225145E-13, 0.00221774517558515, -1.51682111315665E-10, 1], "name" : "Abdomen"}, {"children" : [4], "matrix" : [0.9999999999999482, -9.473461815950771E-08, 3.077970753345686E-07, 0, 1.6220228445304755E-07, 0.9738368980819803, -0.22724783112116703, 0, -2.782159291705055E-07, 0.22724784466623227, 0.9738369561271512, 0, -1.47988430398982E-05, -0.00113079301081598, -0.00115699041634798, 1], "name" : "Hips"}, {"children" : [5], "matrix" : [0.9999999999999716, -8.470307699978921E-22, -2.3841866436669E-07, 0, -8.470307826182052E-22, 1.00000011920929, -7.105407028807746E-15, 0, 2.384186927884097E-07, 7.105407028807746E-15, 1.0000001192092616, 0, 2.15302352444269E-05, 0.0110513223335147, 0.000752292573451996, 1], "name" : "Body"}, {"children" : [6], "matrix" : [0.9999999999998863, 4.7683706149295095E-07, -4.0194359292855316E-14, 0, -4.01943568970848E-14, 2.028158560112358E-07, 0.9999999061668651, 0, 4.768370330712472E-07, -0.9999999061667514, 2.028158560112358E-07, 0, -1.31146907733637E-05, 1.1468418961158E-06, -2.41536963585531E-05, 1], "name" : "Root"}, {"children" : [7], "matrix" : [100, 0, 0, 0, 0, -1.3435885581891682E-05, -99.99999657714513, 0, 0, 99.99999657714513, -1.3435885581891682E-05, 0, 0, 0, 0, 1], "name" : "CharacterArmature"}, {"matrix" : [100, 0, 0, 0, 0, -1.3435885581891682E-05, -99.99999657714513, 0, 0, 99.99999657714513, -1.3435885581891682E-05, 0, 0, 0, 0.165848463773727, 1], "mesh" : 1, "name" : "Rogue"}, {"matrix" : [100, 1.6044057813116616E-09, 2.614798077708194E-10, 0, 2.6148005830406185E-10, -1.3435884556814966E-05, -99.99998894775088, 0, -1.6044057372294387E-09, 99.99999657714513, -1.3435885581891682E-05, 0, 5.73403408088424E-11, -1.14266619277714E-07, 0.165848404169083, 1], "mesh" : 2, "name" : "Rogue.001"}, {"children" : [8, 9, 10], "name" : "RootNode"}], "scene" : 0, "scenes" : [{"nodes" : [11]}]}