{
  "asset": {
    "generator": "Khronos glTF Blender I/O v3.6.27",
    "version": "2.0"
  },
  "extensionsUsed": ["KHR_materials_ior"],
  "scene": 0,
  "scenes": [
    {
      "name": "Scene",
      "nodes": [5]
    }
  ],
  "nodes": [
    {
      "mesh": 0,
      "name": "Frame_Orange_0",
      "scale": [0.7512247562408447, 0.7512247562408447, 0.7512247562408447],
      "translation": [0, 0, -0.030948519706726074]
    },
    {
      "children": [0],
      "name": "Frame",
      "rotation": [-0.70710688829422, 0, 0, 0.7071066498756409],
      "scale": [225.36741638183594, 75.1224594116211, 37.56122970581055],
      "translation": [0, -1.1624603271484375, 0]
    },
    {
      "children": [1],
      "name": "RootNode",
      "scale": [0.7512246966362, 0.7512246370315552, 0.7512246370315552],
      "translation": [0, -0.8732719421386719, 0]
    },
    {
      "children": [2],
      "name": "Object_2",
      "scale": [0.7512247562408447, 0.7512247562408447, 0.7512247562408447],
      "translation": [0, -0.6560211181640625, 0]
    },
    {
      "children": [3],
      "name": "7f09d404031140d78a7bb6db74b81fa4.fbx",
      "rotation": [0.7071069478988647, 0, 0, 0.7071066498756409],
      "scale": [0.7512247562408447, 0.7512246966362, 0.7512246966362],
      "translation": [0, 0, -0.49282073974609375]
    },
    {
      "children": [4],
      "name": "Sketchfab_model",
      "rotation": [-0.70710688829422, 0, 0, 0.7071066498756409],
      "scale": [
        0.012148872017860413, 0.012148872949182987, 0.012148872949182987
      ],
      "translation": [0, 0.1834741234779358, 0]
    }
  ],
  "animations": [
    {
      "channels": [
        {
          "sampler": 0,
          "target": {
            "node": 1,
            "path": "rotation"
          }
        }
      ],
      "name": "Car engine",
      "samplers": [
        {
          "input": 44,
          "interpolation": "LINEAR",
          "output": 45
        }
      ]
    }
  ],
  "materials": [
    {
      "doubleSided": true,
      "name": "Orange",
      "pbrMetallicRoughness": {
        "baseColorFactor": [
          0.12477097660303116, 0.35153213143348694, 0.947306215763092, 1
        ],
        "metallicFactor": 0
      }
    },
    {
      "doubleSided": true,
      "extensions": {
        "KHR_materials_specular": {
          "specularColorFactor": [0, 0, 0]
        },
        "KHR_materials_ior": {
          "ior": 1.4500000476837158
        }
      },
      "name": "GlassesOBJ_Material",
      "pbrMetallicRoughness": {
        "baseColorTexture": {
          "index": 0
        },
        "metallicFactor": 0
      }
    },
    {
      "doubleSided": true,
      "name": "Black",
      "pbrMetallicRoughness": {
        "baseColorFactor": [
          0.0390569306910038, 0.05724354088306427, 0.06372294574975967, 1
        ],
        "metallicFactor": 0
      }
    },
    {
      "doubleSided": true,
      "name": "Light_black",
      "pbrMetallicRoughness": {
        "baseColorFactor": [
          0.14126329123973846, 0.18782077729701996, 0.20507873594760895, 1
        ],
        "metallicFactor": 0
      }
    },
    {
      "doubleSided": true,
      "name": "Glass",
      "pbrMetallicRoughness": {
        "baseColorFactor": [1, 0.967503011226654, 0.8636693358421326, 1],
        "metallicFactor": 0,
        "roughnessFactor": 0
      }
    },
    {
      "doubleSided": true,
      "emissiveFactor": [1, 1, 1],
      "name": "Light",
      "pbrMetallicRoughness": {
        "metallicFactor": 0
      }
    },
    {
      "doubleSided": true,
      "name": "Light_red",
      "pbrMetallicRoughness": {
        "baseColorFactor": [
          0.3049873113632202, 0.13563333451747894, 0.13563333451747894, 1
        ],
        "metallicFactor": 0
      }
    },
    {
      "doubleSided": true,
      "name": "Dark_brown",
      "pbrMetallicRoughness": {
        "baseColorFactor": [1, 0, 0.012967139482498169, 1],
        "metallicFactor": 0
      }
    },
    {
      "doubleSided": true,
      "name": "Dark_brown_handle",
      "pbrMetallicRoughness": {
        "baseColorFactor": [
          0.16826939582824707, 0.10702310502529144, 0.0802198201417923, 1
        ],
        "metallicFactor": 0
      }
    },
    {
      "doubleSided": true,
      "name": "Glass_trailer",
      "pbrMetallicRoughness": {
        "baseColorFactor": [
          0.5394794940948486, 0.5271151065826416, 0.4793201684951782, 1
        ],
        "metallicFactor": 0,
        "roughnessFactor": 0
      }
    },
    {
      "doubleSided": true,
      "name": "Brown",
      "pbrMetallicRoughness": {
        "baseColorFactor": [
          0.9473064541816711, 0.27467697858810425, 0.029556937515735626, 1
        ],
        "metallicFactor": 0
      }
    }
  ],
  "meshes": [
    {
      "name": "Frame_Orange_0",
      "primitives": [
        {
          "attributes": {
            "POSITION": 0,
            "NORMAL": 1,
            "TEXCOORD_0": 2
          },
          "indices": 3,
          "material": 0
        },
        {
          "attributes": {
            "POSITION": 4,
            "NORMAL": 5,
            "TEXCOORD_0": 6
          },
          "indices": 7,
          "material": 1
        },
        {
          "attributes": {
            "POSITION": 8,
            "NORMAL": 9,
            "TEXCOORD_0": 10
          },
          "indices": 11,
          "material": 2
        },
        {
          "attributes": {
            "POSITION": 12,
            "NORMAL": 13,
            "TEXCOORD_0": 14
          },
          "indices": 15,
          "material": 3
        },
        {
          "attributes": {
            "POSITION": 16,
            "NORMAL": 17,
            "TEXCOORD_0": 18
          },
          "indices": 19,
          "material": 4
        },
        {
          "attributes": {
            "POSITION": 20,
            "NORMAL": 21,
            "TEXCOORD_0": 22
          },
          "indices": 23,
          "material": 5
        },
        {
          "attributes": {
            "POSITION": 24,
            "NORMAL": 25,
            "TEXCOORD_0": 26
          },
          "indices": 27,
          "material": 6
        },
        {
          "attributes": {
            "POSITION": 28,
            "NORMAL": 29,
            "TEXCOORD_0": 30
          },
          "indices": 31,
          "material": 7
        },
        {
          "attributes": {
            "POSITION": 32,
            "NORMAL": 33,
            "TEXCOORD_0": 34
          },
          "indices": 35,
          "material": 8
        },
        {
          "attributes": {
            "POSITION": 36,
            "NORMAL": 37,
            "TEXCOORD_0": 38
          },
          "indices": 39,
          "material": 9
        },
        {
          "attributes": {
            "POSITION": 40,
            "NORMAL": 41,
            "TEXCOORD_0": 42
          },
          "indices": 43,
          "material": 10
        }
      ]
    }
  ],
  "textures": [
    {
      "sampler": 0,
      "source": 0
    }
  ],
  "images": [
    {
      "bufferView": 8,
      "mimeType": "image/png",
      "name": "materials\\GlassesOBJ"
    }
  ],
  "accessors": [
    {
      "bufferView": 0,
      "componentType": 5126,
      "count": 365,
      "max": [0.8333333134651184, 1, 4],
      "min": [-0.8333333134651184, -1.000185489654541, 0.15000009536743164],
      "type": "VEC3"
    },
    {
      "bufferView": 1,
      "componentType": 5126,
      "count": 365,
      "type": "VEC3"
    },
    {
      "bufferView": 2,
      "componentType": 5126,
      "count": 365,
      "type": "VEC2"
    },
    {
      "bufferView": 3,
      "componentType": 5123,
      "count": 537,
      "type": "SCALAR"
    },
    {
      "bufferView": 4,
      "componentType": 5126,
      "count": 120,
      "max": [0.3660129904747009, 1.17154860496521, 3.9187655448913574],
      "min": [0.30818140506744385, -1.6043645143508911, 1.8368301391601562],
      "type": "VEC3"
    },
    {
      "bufferView": 5,
      "componentType": 5126,
      "count": 120,
      "type": "VEC3"
    },
    {
      "bufferView": 6,
      "componentType": 5126,
      "count": 120,
      "type": "VEC2"
    },
    {
      "bufferView": 7,
      "componentType": 5123,
      "count": 180,
      "type": "SCALAR"
    },
    {
      "bufferView": 9,
      "componentType": 5126,
      "count": 10659,
      "max": [0.9179325699806213, 2.0978753566741943, 5.3917694091796875],
      "min": [-1.0567911863327026, -2.097869873046875, -1.08767569065094],
      "type": "VEC3"
    },
    {
      "bufferView": 10,
      "componentType": 5126,
      "count": 10659,
      "type": "VEC3"
    },
    {
      "bufferView": 11,
      "componentType": 5126,
      "count": 10659,
      "type": "VEC2"
    },
    {
      "bufferView": 12,
      "componentType": 5123,
      "count": 17421,
      "type": "SCALAR"
    },
    {
      "bufferView": 13,
      "componentType": 5126,
      "count": 4818,
      "max": [0.7789299488067627, 2.1154494285583496, 3.932161331176758],
      "min": [-1.0607852935791016, -2.1154439449310303, -0.2526443302631378],
      "type": "VEC3"
    },
    {
      "bufferView": 14,
      "componentType": 5126,
      "count": 4818,
      "type": "VEC3"
    },
    {
      "bufferView": 15,
      "componentType": 5126,
      "count": 4818,
      "type": "VEC2"
    },
    {
      "bufferView": 16,
      "componentType": 5123,
      "count": 13764,
      "type": "SCALAR"
    },
    {
      "bufferView": 17,
      "componentType": 5126,
      "count": 12,
      "max": [0.2954336106777191, 0.9447251558303833, 3.8313770294189453],
      "min": [-0.1252295821905136, -0.9447251558303833, 1.6333187818527222],
      "type": "VEC3"
    },
    {
      "bufferView": 18,
      "componentType": 5126,
      "count": 12,
      "type": "VEC3"
    },
    {
      "bufferView": 19,
      "componentType": 5126,
      "count": 12,
      "type": "VEC2"
    },
    {
      "bufferView": 20,
      "componentType": 5123,
      "count": 18,
      "type": "SCALAR"
    },
    {
      "bufferView": 21,
      "componentType": 5126,
      "count": 228,
      "max": [0.8543312549591064, 0.8434029221534729, 4.48568868637085],
      "min": [0.11508765071630478, -0.8434029221534729, 0.4897848963737488],
      "type": "VEC3"
    },
    {
      "bufferView": 22,
      "componentType": 5126,
      "count": 228,
      "type": "VEC3"
    },
    {
      "bufferView": 23,
      "componentType": 5126,
      "count": 228,
      "type": "VEC2"
    },
    {
      "bufferView": 24,
      "componentType": 5123,
      "count": 612,
      "type": "SCALAR"
    },
    {
      "bufferView": 25,
      "componentType": 5126,
      "count": 80,
      "max": [-0.8394116163253784, 0.8477350473403931, 1.0210069417953491],
      "min": [-0.8465843796730042, -0.8477350473403931, 0.8789926171302795],
      "type": "VEC3"
    },
    {
      "bufferView": 26,
      "componentType": 5126,
      "count": 80,
      "type": "VEC3"
    },
    {
      "bufferView": 27,
      "componentType": 5126,
      "count": 80,
      "type": "VEC2"
    },
    {
      "bufferView": 28,
      "componentType": 5123,
      "count": 132,
      "type": "SCALAR"
    },
    {
      "bufferView": 29,
      "componentType": 5126,
      "count": 304,
      "max": [0.07939249277114868, 1.0199999809265137, 5.128154754638672],
      "min": [-0.9843058586120605, -1.0199999809265137, 2.067777633666992],
      "type": "VEC3"
    },
    {
      "bufferView": 30,
      "componentType": 5126,
      "count": 304,
      "type": "VEC3"
    },
    {
      "bufferView": 31,
      "componentType": 5126,
      "count": 304,
      "type": "VEC2"
    },
    {
      "bufferView": 32,
      "componentType": 5123,
      "count": 474,
      "type": "SCALAR"
    },
    {
      "bufferView": 33,
      "componentType": 5126,
      "count": 60,
      "max": [-0.3033803701400757, 1.0389649868011475, 2.4890236854553223],
      "min": [-0.467519074678421, -1.0389649868011475, 2.4348883628845215],
      "type": "VEC3"
    },
    {
      "bufferView": 34,
      "componentType": 5126,
      "count": 60,
      "type": "VEC3"
    },
    {
      "bufferView": 35,
      "componentType": 5126,
      "count": 60,
      "type": "VEC2"
    },
    {
      "bufferView": 36,
      "componentType": 5123,
      "count": 90,
      "type": "SCALAR"
    },
    {
      "bufferView": 37,
      "componentType": 5126,
      "count": 24,
      "max": [0.27386239171028137, 1.1221930980682373, 5.032476425170898],
      "min": [-0.7434074878692627, -1.1221978664398193, 1.558722734451294],
      "type": "VEC3"
    },
    {
      "bufferView": 38,
      "componentType": 5126,
      "count": 24,
      "type": "VEC3"
    },
    {
      "bufferView": 39,
      "componentType": 5126,
      "count": 24,
      "type": "VEC2"
    },
    {
      "bufferView": 40,
      "componentType": 5123,
      "count": 36,
      "type": "SCALAR"
    },
    {
      "bufferView": 41,
      "componentType": 5126,
      "count": 113,
      "max": [0.08643138408660889, 1, 5.142869472503662],
      "min": [-0.9501497149467468, -1, 1.4999998807907104],
      "type": "VEC3"
    },
    {
      "bufferView": 42,
      "componentType": 5126,
      "count": 113,
      "type": "VEC3"
    },
    {
      "bufferView": 43,
      "componentType": 5126,
      "count": 113,
      "type": "VEC2"
    },
    {
      "bufferView": 44,
      "componentType": 5123,
      "count": 192,
      "type": "SCALAR"
    },
    {
      "bufferView": 45,
      "componentType": 5126,
      "count": 222,
      "max": [9.25],
      "min": [0.041666666666666664],
      "type": "SCALAR"
    },
    {
      "bufferView": 46,
      "componentType": 5126,
      "count": 222,
      "type": "VEC4"
    }
  ],
  "bufferViews": [
    {
      "buffer": 0,
      "byteLength": 4380,
      "byteOffset": 0,
      "target": 34962
    },
    {
      "buffer": 0,
      "byteLength": 4380,
      "byteOffset": 4380,
      "target": 34962
    },
    {
      "buffer": 0,
      "byteLength": 2920,
      "byteOffset": 8760,
      "target": 34962
    },
    {
      "buffer": 0,
      "byteLength": 1074,
      "byteOffset": 11680,
      "target": 34963
    },
    {
      "buffer": 0,
      "byteLength": 1440,
      "byteOffset": 12756,
      "target": 34962
    },
    {
      "buffer": 0,
      "byteLength": 1440,
      "byteOffset": 14196,
      "target": 34962
    },
    {
      "buffer": 0,
      "byteLength": 960,
      "byteOffset": 15636,
      "target": 34962
    },
    {
      "buffer": 0,
      "byteLength": 360,
      "byteOffset": 16596,
      "target": 34963
    },
    {
      "buffer": 0,
      "byteLength": 4766,
      "byteOffset": 16956
    },
    {
      "buffer": 0,
      "byteLength": 127908,
      "byteOffset": 21724,
      "target": 34962
    },
    {
      "buffer": 0,
      "byteLength": 127908,
      "byteOffset": 149632,
      "target": 34962
    },
    {
      "buffer": 0,
      "byteLength": 85272,
      "byteOffset": 277540,
      "target": 34962
    },
    {
      "buffer": 0,
      "byteLength": 34842,
      "byteOffset": 362812,
      "target": 34963
    },
    {
      "buffer": 0,
      "byteLength": 57816,
      "byteOffset": 397656,
      "target": 34962
    },
    {
      "buffer": 0,
      "byteLength": 57816,
      "byteOffset": 455472,
      "target": 34962
    },
    {
      "buffer": 0,
      "byteLength": 38544,
      "byteOffset": 513288,
      "target": 34962
    },
    {
      "buffer": 0,
      "byteLength": 27528,
      "byteOffset": 551832,
      "target": 34963
    },
    {
      "buffer": 0,
      "byteLength": 144,
      "byteOffset": 579360,
      "target": 34962
    },
    {
      "buffer": 0,
      "byteLength": 144,
      "byteOffset": 579504,
      "target": 34962
    },
    {
      "buffer": 0,
      "byteLength": 96,
      "byteOffset": 579648,
      "target": 34962
    },
    {
      "buffer": 0,
      "byteLength": 36,
      "byteOffset": 579744,
      "target": 34963
    },
    {
      "buffer": 0,
      "byteLength": 2736,
      "byteOffset": 579780,
      "target": 34962
    },
    {
      "buffer": 0,
      "byteLength": 2736,
      "byteOffset": 582516,
      "target": 34962
    },
    {
      "buffer": 0,
      "byteLength": 1824,
      "byteOffset": 585252,
      "target": 34962
    },
    {
      "buffer": 0,
      "byteLength": 1224,
      "byteOffset": 587076,
      "target": 34963
    },
    {
      "buffer": 0,
      "byteLength": 960,
      "byteOffset": 588300,
      "target": 34962
    },
    {
      "buffer": 0,
      "byteLength": 960,
      "byteOffset": 589260,
      "target": 34962
    },
    {
      "buffer": 0,
      "byteLength": 640,
      "byteOffset": 590220,
      "target": 34962
    },
    {
      "buffer": 0,
      "byteLength": 264,
      "byteOffset": 590860,
      "target": 34963
    },
    {
      "buffer": 0,
      "byteLength": 3648,
      "byteOffset": 591124,
      "target": 34962
    },
    {
      "buffer": 0,
      "byteLength": 3648,
      "byteOffset": 594772,
      "target": 34962
    },
    {
      "buffer": 0,
      "byteLength": 2432,
      "byteOffset": 598420,
      "target": 34962
    },
    {
      "buffer": 0,
      "byteLength": 948,
      "byteOffset": 600852,
      "target": 34963
    },
    {
      "buffer": 0,
      "byteLength": 720,
      "byteOffset": 601800,
      "target": 34962
    },
    {
      "buffer": 0,
      "byteLength": 720,
      "byteOffset": 602520,
      "target": 34962
    },
    {
      "buffer": 0,
      "byteLength": 480,
      "byteOffset": 603240,
      "target": 34962
    },
    {
      "buffer": 0,
      "byteLength": 180,
      "byteOffset": 603720,
      "target": 34963
    },
    {
      "buffer": 0,
      "byteLength": 288,
      "byteOffset": 603900,
      "target": 34962
    },
    {
      "buffer": 0,
      "byteLength": 288,
      "byteOffset": 604188,
      "target": 34962
    },
    {
      "buffer": 0,
      "byteLength": 192,
      "byteOffset": 604476,
      "target": 34962
    },
    {
      "buffer": 0,
      "byteLength": 72,
      "byteOffset": 604668,
      "target": 34963
    },
    {
      "buffer": 0,
      "byteLength": 1356,
      "byteOffset": 604740,
      "target": 34962
    },
    {
      "buffer": 0,
      "byteLength": 1356,
      "byteOffset": 606096,
      "target": 34962
    },
    {
      "buffer": 0,
      "byteLength": 904,
      "byteOffset": 607452,
      "target": 34962
    },
    {
      "buffer": 0,
      "byteLength": 384,
      "byteOffset": 608356,
      "target": 34963
    },
    {
      "buffer": 0,
      "byteLength": 888,
      "byteOffset": 608740
    },
    {
      "buffer": 0,
      "byteLength": 3552,
      "byteOffset": 609628
    }
  ],
  "samplers": [
    {
      "magFilter": 9729,
      "minFilter": 9987
    }
  ],
  "buffers": [
    {
      "byteLength": 613180,
      "uri": "data:application/octet-stream;base64,"
    }
  ]
}
