<svg width="190" height="108" viewBox="0 0 190 108" fill="none" xmlns="http://www.w3.org/2000/svg">
<path d="M82.5377 49.9996H61.1409V46.4416H57.5828V42.8836H54.0248V39.3255H50.4668V10.7883H54.0248V7.23026H57.5828V3.67223H61.1409V0.0898438H82.5377V3.67223H86.0957V7.23026H89.6781V10.7883H93.2361V39.3255H89.6781V42.8836H86.0957V46.4416H82.5377V49.9996ZM64.7232 42.8836H78.9797V39.3255H82.5377V35.7431H86.0957V14.3707H82.5377V10.7883H78.9797V7.23026H64.7232V10.7883H61.1409V14.3707H57.5828V35.7431H61.1409V39.3255H64.7232V42.8836Z" fill="#068940"/>
<path d="M29.0715 49.9996H11.2327V46.4416H7.67463V42.8836H4.11661V39.3255H0.558594V10.7883H4.11661V7.23026H7.67463V3.67223H11.2327V0.0898438H32.6295V3.67223H36.1875V7.23026H39.7699V10.7883H43.3279V17.9287H36.1875V14.3707H32.6295V10.7883H29.0715V7.23026H14.815V10.7883H11.2327V14.3707H7.67463V35.7431H11.2327V39.3255H14.815V42.8836H29.0715V39.3255H32.6295V35.7431H36.1875V32.1851H25.5135V25.0447H43.3279V49.9996H36.1875V42.8836H32.6295V46.4416H29.0715V49.9996Z" fill="#068940"/>
<path d="M182.357 107.91H164.518V104.352H160.96V100.794H157.402V97.2361H168.076V100.794H180.554V93.6537H168.076V90.0957H160.96V86.5377H157.402V79.3973H160.96V75.8393H164.518V72.2812H182.357V75.8393H185.915V79.3973H189.473V82.9553H178.775V79.3973H166.297V86.5377H178.775V90.0957H185.915V93.6537H189.473V100.794H185.915V104.352H182.357V107.91Z" fill="#F3322C"/>
<path d="M127.089 107.91H119.973V72.2812H127.089V75.8393H130.647V72.2812H143.124V75.8393H146.707V79.3973H150.265V107.91H143.124V82.9553H139.566V79.3973H130.647V82.9553H127.089V107.91Z" fill="#F3322C"/>
<path d="M102.133 107.91H89.6551V104.352H86.0971V100.794H82.5391V72.2812H89.6551V97.2361H93.2131V100.794H102.133V97.2361H105.691V72.2812H112.831V107.91H105.691V104.352H102.133V107.91Z" fill="#F3322C"/>
<path d="M68.3064 107.91H50.4676V104.352H46.9096V100.794H43.3516V79.3973H46.9096V75.8393H50.4676V72.2812H68.3064V75.8393H71.8645V79.3973H75.4225V100.794H71.8645V104.352H68.3064V107.91ZM54.0256 100.794H64.724V97.2361H68.3064V82.9553H64.724V79.3973H54.0256V82.9553H50.4676V97.2361H54.0256V100.794Z" fill="#F3322C"/>
<path d="M7.67463 107.91H0.558594V58H11.2327V65.1404H14.815V72.2808H18.3731V79.3969H21.9311V86.5373H25.5135V93.6533H29.0715V58H36.1875V107.91H25.5135V100.794H21.9311V93.6533H18.3731V86.5373H14.815V79.3969H11.2327V72.2808H7.67463V107.91Z" fill="#F3322C"/>
<path d="M147.602 8H114.602V11.3H147.602V8Z" fill="#0079FC"/>
<path d="M187.199 8H154.199V11.3H187.199V8Z" fill="#0079FC"/>
<path d="M117.902 11.3008H114.602V14.6008H117.902V11.3008Z" fill="#0079FC"/>
<path d="M147.6 11.3008H134.4V14.6008H147.6V11.3008Z" fill="#0079FC"/>
<path d="M157.499 11.3008H154.199V14.6008H157.499V11.3008Z" fill="#0079FC"/>
<path d="M187.202 11.3008H174.002V14.6008H187.202V11.3008Z" fill="#0079FC"/>
<path d="M117.902 14.5977H114.602V17.8977H117.902V14.5977Z" fill="#0079FC"/>
<path d="M147.6 14.5977H134.4V17.8977H147.6V14.5977Z" fill="#0079FC"/>
<path d="M157.499 14.5977H154.199V17.8977H157.499V14.5977Z" fill="#0079FC"/>
<path d="M187.202 14.5977H174.002V17.8977H187.202V14.5977Z" fill="#0079FC"/>
<path d="M117.9 17.9023H101.4V21.2023H117.9V17.9023Z" fill="#0079FC"/>
<path d="M157.5 17.9023H134.4V21.2023H157.5V17.9023Z" fill="#0079FC"/>
<path d="M187.202 17.9023H174.002V21.2023H187.202V17.9023Z" fill="#0079FC"/>
<path d="M117.9 21.1992H101.4V24.4992H117.9V21.1992Z" fill="#0079FC"/>
<path d="M157.5 21.1992H134.4V24.4992H157.5V21.1992Z" fill="#0079FC"/>
<path d="M187.202 21.1992H174.002V24.4992H187.202V21.1992Z" fill="#0079FC"/>
<path d="M104.7 24.5H101.4V27.8H104.7V24.5Z" fill="#0079FC"/>
<path d="M117.902 24.5H114.602V27.8H117.902V24.5Z" fill="#0079FC"/>
<path d="M147.6 24.5H134.4V27.8H147.6V24.5Z" fill="#0079FC"/>
<path d="M157.499 24.5H154.199V27.8H157.499V24.5Z" fill="#0079FC"/>
<path d="M187.202 24.5H174.002V27.8H187.202V24.5Z" fill="#0079FC"/>
<path d="M104.7 27.8008H101.4V31.1008H104.7V27.8008Z" fill="#0079FC"/>
<path d="M117.902 27.8008H114.602V31.1008H117.902V27.8008Z" fill="#0079FC"/>
<path d="M147.6 27.8008H134.4V31.1008H147.6V27.8008Z" fill="#0079FC"/>
<path d="M157.499 27.8008H154.199V31.1008H157.499V27.8008Z" fill="#0079FC"/>
<path d="M187.202 27.8008H174.002V31.1008H187.202V27.8008Z" fill="#0079FC"/>
<path d="M104.7 31.0977H101.4V34.3977H104.7V31.0977Z" fill="#0079FC"/>
<path d="M117.902 31.0977H114.602V34.3977H117.902V31.0977Z" fill="#0079FC"/>
<path d="M147.6 31.0977H134.4V34.3977H147.6V31.0977Z" fill="#0079FC"/>
<path d="M157.499 31.0977H154.199V34.3977H157.499V31.0977Z" fill="#0079FC"/>
<path d="M187.202 31.0977H174.002V34.3977H187.202V31.0977Z" fill="#0079FC"/>
<path d="M117.902 34.4023H114.602V37.7023H117.902V34.4023Z" fill="#0079FC"/>
<path d="M147.6 34.4023H134.4V37.7023H147.6V34.4023Z" fill="#0079FC"/>
<path d="M157.499 34.4023H154.199V37.7023H157.499V34.4023Z" fill="#0079FC"/>
<path d="M187.202 34.4023H174.002V37.7023H187.202V34.4023Z" fill="#0079FC"/>
<path d="M147.602 37.6992H114.602V40.9992H147.602V37.6992Z" fill="#0079FC"/>
<path d="M187.199 37.6992H154.199V40.9992H187.199V37.6992Z" fill="#0079FC"/>
</svg>
